<?xml version="1.0" encoding="utf-8"?>
<!-- Generator: Adobe Illustrator 23.0.1, SVG Export Plug-In . SVG Version: 6.00 Build 0)  -->
<svg version="1.1" id="Layer_1" xmlns="http://www.w3.org/2000/svg" xmlns:xlink="http://www.w3.org/1999/xlink" x="0px" y="0px"
	 viewBox="0 0 640 480" style="enable-background:new 0 0 640 480;" xml:space="preserve">
<style type="text/css">
	.st0{fill:#1E1E1E;}
</style>
<g>
	<path class="st0" d="M312.3,13.3c-60.5,0-114.8,25.3-152,65.4c-5.8,6.2-11.1,12.8-16,19.8c-22,31-34.9,68.4-34.9,108.7
		c0,43.8,15.2,84.3,40.9,116.7l19-15.5c-21.3-28.1-33.8-62.6-33.8-99.9c0-35.6,11.4-68.6,30.9-95.9c4.9-6.9,10.4-13.5,16.3-19.6
		c32.5-33.7,79.2-54.8,131-54.8c49.4,0,94,19.2,126.3,50.1l18.8-15.3C421.9,36.2,369.9,13.3,312.3,13.3z M475.7,92.2l-18.5,15.1
		c21.9,28.3,34.9,63.4,34.9,101.3c0,25.7-5.9,50.1-16.6,71.9c-3.7,7.6-8,14.9-12.8,21.9c-31.9,46.2-86.6,76.6-148.8,76.6
		c-50,0-95.2-19.7-127.6-51.4l-18.8,15.3c36.8,36,88.2,58.3,145,58.3c70.6,0,132.8-34.5,169.1-86.8c4.8-6.9,9.2-14.2,13.1-21.7
		c13.3-25.8,20.7-54.8,20.7-85.5C515.2,164.1,500.5,124.3,475.7,92.2z"/>
	<path class="st0" d="M160.4,78.7l22.4,14.3c-5.9,6.1-11.4,12.7-16.3,19.6l-22.1-14.2C149.3,91.5,154.6,85,160.4,78.7z"/>
	<path class="st0" d="M494.5,292.7c-3.9,7.5-8.2,14.7-13.1,21.7l-18.8-12c4.8-7,9.1-14.2,12.8-21.9L494.5,292.7z"/>
	<g>
		<path class="st0" d="M363.6,133.5c-4.5-11.5-11.3-20.9-20.4-28.3c-7-5.7-15.4-9.7-25.3-11.9c-7.1-1.6-17.3-2.4-30.7-2.4h-59.4
			v165.8H290c10.4,0,19.6-0.9,27.6-2.8v-21.1c-1.1,0.4-2.3,0.8-3.4,1.2c-6.5,2-15.4,3.1-26.8,3.1h-36.8V110.5h36.2
			c13.6,0,23.4,1.1,29.5,3.4c8.5,3.2,15.7,9.4,21.6,18.7c5.9,9.3,8.9,22.6,8.9,40c0,5.3-0.3,10.4-0.8,15h23.6
			c0.5-4.7,0.8-9.6,0.8-14.7C370.3,158.1,368.1,145,363.6,133.5z M347.4,238.1c2.3-2.2,4.4-4.8,6.5-7.5c3.9-5.2,7.2-11.6,10-19.1
			h-16.5V238.1z"/>
	</g>
	<g>
		<path class="st0" d="M78.4,472.7v-46.1h12.8c1.1,0,2.3,0,3.4,0.1c1.2,0.1,2.3,0.2,3.4,0.3c1.1,0.1,2.2,0.3,3.2,0.5
			c1,0.2,2,0.4,2.8,0.7c2.6,0.8,4.8,1.8,6.8,3.2c2,1.3,3.6,2.9,5,4.7c1.3,1.8,2.3,3.9,3,6.1c0.7,2.2,1,4.7,1,7.3
			c0,2.5-0.3,4.8-0.9,7c-0.6,2.2-1.4,4.2-2.6,5.9c-1.2,1.8-2.7,3.4-4.5,4.7c-1.8,1.4-3.9,2.5-6.3,3.4c-2,0.7-4.3,1.3-7,1.7
			c-2.6,0.4-5.5,0.6-8.8,0.6L78.4,472.7L78.4,472.7z M90.8,465.6c5.2,0,9.2-0.7,12.1-2c2.6-1.2,4.5-3,5.8-5.3c1.3-2.3,2-5.3,2-8.9
			c0-1.9-0.2-3.6-0.6-5.1c-0.4-1.5-1-2.9-1.9-4c-0.8-1.2-1.8-2.2-3-3c-1.2-0.9-2.5-1.6-3.9-2.1c-1.4-0.5-2.9-0.9-4.6-1.1
			s-3.6-0.3-5.7-0.3h-3.9v32H90.8z"/>
		<path class="st0" d="M138,465.6h23.7v7.1h-32.5v-46.1h31.2v7.1H138v11.9h19.2v7.1H138V465.6z"/>
		<path class="st0" d="M189,461.4c0.9-2.5,1.5-4.3,1.9-5.3c0.4-1.1,1.2-3.2,2.5-6.6l8.9-22.9h9.3l-18.8,46.1h-7.9l-18.8-46.1h9.4
			l8.9,22.9c1.3,3.3,2.1,5.5,2.5,6.6c0.4,1.1,1,2.9,1.9,5.3H189z"/>
		<path class="st0" d="M227,465.6h23.7v7.1h-32.5v-46.1h31.2v7.1H227v11.9h19.2v7.1H227L227,465.6L227,465.6z"/>
		<path class="st0" d="M268.9,426.6v39h22.5v7.1H260v-46.1L268.9,426.6L268.9,426.6z"/>
		<path class="st0" d="M341.6,449.7c0,3.5-0.5,6.7-1.6,9.7c-1,2.9-2.6,5.5-4.6,7.6s-4.5,3.7-7.4,4.9c-2.9,1.2-6.2,1.7-10,1.7
			c-3.7,0-7-0.6-10-1.7c-2.9-1.2-5.4-2.8-7.4-4.9c-2-2.1-3.5-4.6-4.6-7.6s-1.6-6.1-1.6-9.7s0.5-6.7,1.6-9.7s2.6-5.5,4.6-7.6
			c2-2.1,4.5-3.8,7.4-4.9c2.9-1.2,6.2-1.7,10-1.7c3.7,0,7,0.6,10,1.7c2.9,1.2,5.4,2.8,7.4,4.9c2,2.1,3.5,4.6,4.6,7.6
			C341.1,442.9,341.6,446.1,341.6,449.7z M332.5,449.7c0-2.8-0.4-5.3-1.1-7.3c-0.7-2.1-1.7-3.9-3-5.3c-1.3-1.4-2.8-2.4-4.6-3.1
			c-1.8-0.7-3.7-1-5.8-1c-2.1,0-4,0.4-5.8,1c-1.8,0.7-3.3,1.7-4.6,3.1c-1.3,1.4-2.3,3.2-3,5.3c-0.7,2.1-1.1,4.5-1.1,7.3
			c0,2.8,0.3,5.3,1.1,7.3c0.7,2.1,1.7,3.9,3,5.2c1.3,1.4,2.8,2.4,4.6,3.1c1.8,0.7,3.7,1.1,5.8,1.1c2.1,0,4-0.4,5.8-1.1
			c1.7-0.7,3.3-1.7,4.6-3.1c1.3-1.4,2.3-3.1,3-5.2C332.2,454.9,332.5,452.5,332.5,449.7z"/>
		<path class="st0" d="M364.3,454.9c-0.8,0-1.6,0-2.3,0c-0.8,0-1.5-0.1-2.2-0.1v18H351v-46.1h13.9c2.3,0,4.4,0.1,6.1,0.3
			c1.7,0.2,3.3,0.5,4.7,0.9c3.3,1,5.8,2.5,7.6,4.6c1.8,2.1,2.7,4.8,2.7,8.1c0,2.2-0.5,4.2-1.4,6c-1,1.8-2.4,3.3-4.2,4.5
			c-1.9,1.2-4.1,2.2-6.8,2.9C370.8,454.6,367.8,454.9,364.3,454.9z M359.8,447.6c0.5,0.1,1.2,0.1,1.9,0.2s1.6,0.1,2.4,0.1
			c2.4,0,4.4-0.2,6-0.6c1.6-0.4,2.9-0.9,3.9-1.5c1-0.6,1.7-1.4,2.1-2.4c0.4-0.9,0.6-1.9,0.6-3c0-1.4-0.3-2.5-1-3.5
			c-0.6-1-1.8-1.7-3.4-2.3c-0.8-0.3-1.9-0.5-3.1-0.6c-1.2-0.1-2.8-0.2-4.6-0.2h-5L359.8,447.6L359.8,447.6z"/>
		<path class="st0" d="M420.1,460.3c1.1-3.6,2.4-7.5,3.9-11.7l8.3-22h12.4v46.1h-8.8v-23.4c0-3.4,0.1-7.4,0.4-11.9H436
			c-0.4,1.3-0.9,2.8-1.4,4.4s-1.1,3.2-1.7,4.8l-10,26h-5.7l-10-26c-0.6-1.6-1.2-3.2-1.7-4.8s-1-3.1-1.4-4.4h-0.3
			c0.3,4.2,0.4,8.2,0.4,11.9v23.4h-8.8v-46.1h12.3l8.3,21.9c1.4,3.7,2.7,7.6,3.9,11.8L420.1,460.3L420.1,460.3z"/>
		<path class="st0" d="M465.1,465.6h23.7v7.1h-32.5v-46.1h31.2v7.1h-22.4v11.9h19.2v7.1h-19.2L465.1,465.6L465.1,465.6z"/>
		<path class="st0" d="M523.3,448.1c3.4,4.7,6.3,8.9,8.4,12.5h0.2c-0.3-6-0.4-10.4-0.4-13.1v-20.9h8.8v46.1h-9.3l-15.7-21.2
			c-2.8-3.7-5.6-7.9-8.6-12.8h-0.2c0.3,5.7,0.4,10,0.4,13.1v20.9h-8.8v-46.1h9.2L523.3,448.1z"/>
		<path class="st0" d="M571.6,472.7h-8.8v-39h-15.6v-7.1h39.9v7.1h-15.5V472.7z"/>
	</g>
	<g>
		<path class="st0" d="M369.5,187.6c-0.7,6.8-2,13-3.8,18.8c-0.6,1.7-1.1,3.5-1.8,5.1h57.5v-23.9H369.5z M347.4,238.1
			c-2.9,2.9-6,5.4-9.2,7.5c-5.7,3.7-12.5,6.4-20.6,8.3c0,0-0.1,0-0.1,0v89.5h29.9v-67.8h63.3v-23.9h-63.3L347.4,238.1L347.4,238.1z
			 M342.3,204.5c1.7-5,3-10.7,3.7-16.9h-28.3v45.3c4.9-1.9,8.9-4.4,12-7.4C335,220.3,339.2,213.3,342.3,204.5z"/>
	</g>
</g>
</svg>
